<mxfile host="Electron" agent="Mozilla/5.0 (Windows NT 10.0; Win64; x64) AppleWebKit/537.36 (KHTML, like Gecko) draw.io/27.0.9 Chrome/134.0.6998.205 Electron/35.4.0 Safari/537.36" version="27.0.9">
  <diagram name="Page-1" id="UkrqL8UWyHSDTIlDYjoT">
    <mxGraphModel dx="827" dy="647" grid="1" gridSize="10" guides="1" tooltips="1" connect="1" arrows="1" fold="1" page="1" pageScale="1" pageWidth="850" pageHeight="1100" math="0" shadow="0">
      <root>
        <mxCell id="0" />
        <mxCell id="1" parent="0" />
        <mxCell id="u09L4TnPzqUx7UX7cY9H-2" value="" style="rounded=0;whiteSpace=wrap;html=1;glass=0;shadow=0;fillColor=#f5f5f5;fontColor=#333333;strokeColor=#666666;movable=1;resizable=1;rotatable=1;deletable=1;editable=1;locked=0;connectable=1;" parent="1" vertex="1">
          <mxGeometry x="45" y="380" width="205" height="150" as="geometry" />
        </mxCell>
        <mxCell id="6NSCMFKz4_zxUdtsDNVj-2" value="" style="rounded=0;whiteSpace=wrap;html=1;glass=0;shadow=0;fillColor=#f5f5f5;fontColor=#333333;strokeColor=#666666;" parent="1" vertex="1">
          <mxGeometry x="184" y="850" width="116" height="120" as="geometry" />
        </mxCell>
        <mxCell id="Al4e4faQVb-lgTv6NyQn-50" value="" style="rounded=0;whiteSpace=wrap;html=1;glass=0;shadow=0;fillColor=#f5f5f5;fontColor=#333333;strokeColor=#666666;movable=0;resizable=0;rotatable=0;deletable=0;editable=0;locked=1;connectable=0;" parent="1" vertex="1">
          <mxGeometry x="120" y="10" width="550" height="210" as="geometry" />
        </mxCell>
        <mxCell id="Al4e4faQVb-lgTv6NyQn-61" value="" style="rounded=0;whiteSpace=wrap;html=1;glass=0;shadow=0;fillColor=#f5f5f5;fontColor=#333333;strokeColor=#666666;movable=0;resizable=0;rotatable=0;deletable=0;editable=0;locked=1;connectable=0;" parent="1" vertex="1">
          <mxGeometry x="250" y="380" width="590" height="360" as="geometry" />
        </mxCell>
        <mxCell id="Al4e4faQVb-lgTv6NyQn-62" value="&lt;b&gt;&lt;font style=&quot;font-size: 14px;&quot;&gt;PCB&lt;/font&gt;&lt;/b&gt;" style="text;html=1;align=center;verticalAlign=middle;resizable=0;points=[];autosize=1;strokeColor=none;fillColor=none;movable=0;rotatable=0;deletable=0;editable=0;locked=1;connectable=0;" parent="1" vertex="1">
          <mxGeometry x="785" y="710" width="50" height="30" as="geometry" />
        </mxCell>
        <mxCell id="Al4e4faQVb-lgTv6NyQn-48" value="" style="rounded=0;whiteSpace=wrap;html=1;glass=0;shadow=0;fillColor=#f5f5f5;fontColor=#333333;strokeColor=#666666;movable=1;resizable=1;rotatable=1;deletable=1;editable=1;locked=0;connectable=1;" parent="1" vertex="1">
          <mxGeometry x="45" y="530" width="205" height="210" as="geometry" />
        </mxCell>
        <mxCell id="Uc1Cv-IKloBRggZakuaF-52" style="edgeStyle=orthogonalEdgeStyle;rounded=0;orthogonalLoop=1;jettySize=auto;html=1;exitX=0.32;exitY=0.99;exitDx=0;exitDy=0;entryX=0;entryY=0.25;entryDx=0;entryDy=0;exitPerimeter=0;" parent="1" source="Uc1Cv-IKloBRggZakuaF-10" target="Uc1Cv-IKloBRggZakuaF-30" edge="1">
          <mxGeometry relative="1" as="geometry">
            <Array as="points">
              <mxPoint x="370" y="650" />
              <mxPoint x="380" y="650" />
              <mxPoint x="380" y="775" />
            </Array>
          </mxGeometry>
        </mxCell>
        <mxCell id="Al4e4faQVb-lgTv6NyQn-63" value="PWM" style="edgeLabel;html=1;align=center;verticalAlign=middle;resizable=0;points=[];" parent="Uc1Cv-IKloBRggZakuaF-52" vertex="1" connectable="0">
          <mxGeometry x="0.8229" y="-2" relative="1" as="geometry">
            <mxPoint as="offset" />
          </mxGeometry>
        </mxCell>
        <mxCell id="Uc1Cv-IKloBRggZakuaF-53" style="edgeStyle=orthogonalEdgeStyle;rounded=0;orthogonalLoop=1;jettySize=auto;html=1;exitX=0.386;exitY=0.972;exitDx=0;exitDy=0;entryX=0;entryY=0.25;entryDx=0;entryDy=0;exitPerimeter=0;" parent="1" source="Uc1Cv-IKloBRggZakuaF-10" target="Uc1Cv-IKloBRggZakuaF-32" edge="1">
          <mxGeometry relative="1" as="geometry">
            <Array as="points">
              <mxPoint x="380" y="650" />
              <mxPoint x="380" y="955" />
            </Array>
          </mxGeometry>
        </mxCell>
        <mxCell id="Uc1Cv-IKloBRggZakuaF-54" style="edgeStyle=orthogonalEdgeStyle;rounded=0;orthogonalLoop=1;jettySize=auto;html=1;exitX=0.455;exitY=0.99;exitDx=0;exitDy=0;entryX=0;entryY=0.25;entryDx=0;entryDy=0;exitPerimeter=0;" parent="1" source="Uc1Cv-IKloBRggZakuaF-10" target="Uc1Cv-IKloBRggZakuaF-31" edge="1">
          <mxGeometry relative="1" as="geometry">
            <Array as="points">
              <mxPoint x="391" y="650" />
              <mxPoint x="380" y="650" />
              <mxPoint x="380" y="935" />
            </Array>
          </mxGeometry>
        </mxCell>
        <mxCell id="Al4e4faQVb-lgTv6NyQn-18" value="x3 PWM" style="edgeLabel;html=1;align=center;verticalAlign=middle;resizable=0;points=[];" parent="Uc1Cv-IKloBRggZakuaF-54" vertex="1" connectable="0">
          <mxGeometry x="-0.0923" y="-1" relative="1" as="geometry">
            <mxPoint y="-201" as="offset" />
          </mxGeometry>
        </mxCell>
        <mxCell id="OjgTnRjkWDVyIgPL5-Gs-8" value="x3 PWM" style="edgeLabel;html=1;align=center;verticalAlign=middle;resizable=0;points=[];" vertex="1" connectable="0" parent="Uc1Cv-IKloBRggZakuaF-54">
          <mxGeometry x="-0.6867" y="-1" relative="1" as="geometry">
            <mxPoint as="offset" />
          </mxGeometry>
        </mxCell>
        <UserObject label="Teensy Microcontroller" link="https://www.pjrc.com/store/teensy41.html" id="Uc1Cv-IKloBRggZakuaF-10">
          <mxCell style="rounded=0;whiteSpace=wrap;html=1;" parent="1" vertex="1">
            <mxGeometry x="320" y="560" width="155" height="60" as="geometry" />
          </mxCell>
        </UserObject>
        <mxCell id="Al4e4faQVb-lgTv6NyQn-41" style="edgeStyle=orthogonalEdgeStyle;rounded=0;orthogonalLoop=1;jettySize=auto;html=1;entryX=0.75;entryY=0;entryDx=0;entryDy=0;exitX=0.75;exitY=1;exitDx=0;exitDy=0;" parent="1" source="Uc1Cv-IKloBRggZakuaF-12" target="Uc1Cv-IKloBRggZakuaF-10" edge="1">
          <mxGeometry relative="1" as="geometry">
            <mxPoint x="790" y="390" as="sourcePoint" />
            <Array as="points">
              <mxPoint x="790" y="440" />
              <mxPoint x="790" y="540" />
              <mxPoint x="436" y="540" />
            </Array>
          </mxGeometry>
        </mxCell>
        <UserObject label="GPS" link="https://www.adafruit.com/product/4279" id="Uc1Cv-IKloBRggZakuaF-11">
          <mxCell style="rounded=0;whiteSpace=wrap;html=1;" parent="1" vertex="1">
            <mxGeometry x="680" y="390" width="50" height="50" as="geometry" />
          </mxCell>
        </UserObject>
        <UserObject label="IMU" link="https://www.adafruit.com/product/4646" id="Uc1Cv-IKloBRggZakuaF-12">
          <mxCell style="rounded=0;whiteSpace=wrap;html=1;" parent="1" vertex="1">
            <mxGeometry x="750" y="390" width="50" height="50" as="geometry" />
          </mxCell>
        </UserObject>
        <mxCell id="crPP7mbpxgBwKGuKat4Y-1" style="edgeStyle=orthogonalEdgeStyle;rounded=0;orthogonalLoop=1;jettySize=auto;html=1;entryX=0.5;entryY=0;entryDx=0;entryDy=0;" parent="1" target="Uc1Cv-IKloBRggZakuaF-77" edge="1">
          <mxGeometry relative="1" as="geometry">
            <mxPoint x="430" y="80" as="sourcePoint" />
          </mxGeometry>
        </mxCell>
        <mxCell id="crPP7mbpxgBwKGuKat4Y-2" value="A, B (GPIO)" style="edgeLabel;html=1;align=center;verticalAlign=middle;resizable=0;points=[];" parent="crPP7mbpxgBwKGuKat4Y-1" vertex="1" connectable="0">
          <mxGeometry x="-0.6167" relative="1" as="geometry">
            <mxPoint x="10" as="offset" />
          </mxGeometry>
        </mxCell>
        <UserObject label="WindVane" link="https://www.digikey.com/en/products/detail/grayhill-inc/63R256/304479" id="Uc1Cv-IKloBRggZakuaF-13">
          <mxCell style="rounded=0;whiteSpace=wrap;html=1;" parent="1" vertex="1">
            <mxGeometry x="347.5" y="20" width="120" height="60" as="geometry" />
          </mxCell>
        </UserObject>
        <mxCell id="Uc1Cv-IKloBRggZakuaF-14" value="Mast Fan Out" style="rounded=0;whiteSpace=wrap;html=1;" parent="1" vertex="1">
          <mxGeometry x="347.5" y="390" width="120" height="30" as="geometry" />
        </mxCell>
        <mxCell id="crPP7mbpxgBwKGuKat4Y-3" style="edgeStyle=orthogonalEdgeStyle;rounded=0;orthogonalLoop=1;jettySize=auto;html=1;exitX=0.75;exitY=1;exitDx=0;exitDy=0;entryX=0.75;entryY=0;entryDx=0;entryDy=0;" parent="1" source="Uc1Cv-IKloBRggZakuaF-15" target="Uc1Cv-IKloBRggZakuaF-77" edge="1">
          <mxGeometry relative="1" as="geometry">
            <Array as="points">
              <mxPoint x="607" y="140" />
              <mxPoint x="437" y="140" />
            </Array>
          </mxGeometry>
        </mxCell>
        <mxCell id="crPP7mbpxgBwKGuKat4Y-4" value="SBUS_OUT (RX GPIO)" style="edgeLabel;html=1;align=center;verticalAlign=middle;resizable=0;points=[];" parent="crPP7mbpxgBwKGuKat4Y-3" vertex="1" connectable="0">
          <mxGeometry x="-0.8415" y="1" relative="1" as="geometry">
            <mxPoint x="2" y="19" as="offset" />
          </mxGeometry>
        </mxCell>
        <UserObject label="RC Transceiver" link="https://www.frsky-rc.com/wp-content/uploads/Downloads/Manual/R-XSR/R-XSR%20ACCST%20-Manual.pdf" id="Uc1Cv-IKloBRggZakuaF-15">
          <mxCell style="rounded=0;whiteSpace=wrap;html=1;" parent="1" vertex="1">
            <mxGeometry x="540" y="55" width="90" height="20" as="geometry" />
          </mxCell>
        </UserObject>
        <UserObject label="Pi5" link="https://www.raspberrypi.com/products/raspberry-pi-5/" id="Uc1Cv-IKloBRggZakuaF-16">
          <mxCell style="rounded=0;whiteSpace=wrap;html=1;" parent="1" vertex="1">
            <mxGeometry x="560" y="590" width="200" height="130" as="geometry" />
          </mxCell>
        </UserObject>
        <mxCell id="OjgTnRjkWDVyIgPL5-Gs-7" style="edgeStyle=orthogonalEdgeStyle;rounded=0;orthogonalLoop=1;jettySize=auto;html=1;exitX=0.75;exitY=0;exitDx=0;exitDy=0;endArrow=none;startFill=0;fillColor=#f8cecc;strokeColor=#b85450;" edge="1" parent="1" source="Uc1Cv-IKloBRggZakuaF-26">
          <mxGeometry relative="1" as="geometry">
            <mxPoint x="120.00000000000006" y="840" as="targetPoint" />
          </mxGeometry>
        </mxCell>
        <mxCell id="Uc1Cv-IKloBRggZakuaF-26" value="" style="group;movable=1;resizable=1;rotatable=1;deletable=1;editable=1;locked=0;connectable=1;" parent="1" vertex="1" connectable="0">
          <mxGeometry x="30" y="860" width="270" height="110" as="geometry" />
        </mxCell>
        <mxCell id="Al4e4faQVb-lgTv6NyQn-46" value="" style="rounded=0;whiteSpace=wrap;html=1;glass=0;shadow=0;fillColor=#f5f5f5;fontColor=#333333;strokeColor=#666666;" parent="Uc1Cv-IKloBRggZakuaF-26" vertex="1">
          <mxGeometry x="-10" y="-4.583333333333333" width="160" height="110" as="geometry" />
        </mxCell>
        <mxCell id="Uc1Cv-IKloBRggZakuaF-21" value="Battery (9-12.6V+)" style="rounded=0;whiteSpace=wrap;html=1;shadow=0;" parent="Uc1Cv-IKloBRggZakuaF-26" vertex="1">
          <mxGeometry width="144.91" height="90" as="geometry" />
        </mxCell>
        <mxCell id="Uc1Cv-IKloBRggZakuaF-65" style="edgeStyle=orthogonalEdgeStyle;rounded=0;orthogonalLoop=1;jettySize=auto;html=1;entryX=0;entryY=0.75;entryDx=0;entryDy=0;fillColor=#f8cecc;strokeColor=#b85450;" parent="1" target="Uc1Cv-IKloBRggZakuaF-10" edge="1">
          <mxGeometry relative="1" as="geometry">
            <mxPoint x="270" y="611" as="sourcePoint" />
            <Array as="points">
              <mxPoint x="280" y="611" />
              <mxPoint x="280" y="605" />
            </Array>
          </mxGeometry>
        </mxCell>
        <mxCell id="Uc1Cv-IKloBRggZakuaF-66" value="3.3V" style="edgeLabel;html=1;align=center;verticalAlign=middle;resizable=0;points=[];" parent="Uc1Cv-IKloBRggZakuaF-65" vertex="1" connectable="0">
          <mxGeometry x="0.7529" y="-1" relative="1" as="geometry">
            <mxPoint x="-15" as="offset" />
          </mxGeometry>
        </mxCell>
        <mxCell id="Uc1Cv-IKloBRggZakuaF-27" value="3.3V Buck Converter" style="rounded=0;whiteSpace=wrap;html=1;" parent="1" vertex="1">
          <mxGeometry x="62.04" y="560" width="50" height="50" as="geometry" />
        </mxCell>
        <mxCell id="Uc1Cv-IKloBRggZakuaF-67" style="edgeStyle=orthogonalEdgeStyle;rounded=0;orthogonalLoop=1;jettySize=auto;html=1;entryX=0;entryY=0.75;entryDx=0;entryDy=0;fillColor=#f8cecc;strokeColor=#b85450;" parent="1" target="Uc1Cv-IKloBRggZakuaF-16" edge="1">
          <mxGeometry relative="1" as="geometry">
            <mxPoint x="520" y="690" as="sourcePoint" />
            <Array as="points">
              <mxPoint x="530" y="690" />
              <mxPoint x="530" y="687" />
            </Array>
          </mxGeometry>
        </mxCell>
        <mxCell id="Uc1Cv-IKloBRggZakuaF-68" value="5V" style="edgeLabel;html=1;align=center;verticalAlign=middle;resizable=0;points=[];" parent="Uc1Cv-IKloBRggZakuaF-67" vertex="1" connectable="0">
          <mxGeometry x="0.8447" relative="1" as="geometry">
            <mxPoint x="-15" as="offset" />
          </mxGeometry>
        </mxCell>
        <mxCell id="Uc1Cv-IKloBRggZakuaF-28" value="5V Buck Converter" style="rounded=0;whiteSpace=wrap;html=1;" parent="1" vertex="1">
          <mxGeometry x="122.04" y="560" width="52.55" height="50" as="geometry" />
        </mxCell>
        <mxCell id="Uc1Cv-IKloBRggZakuaF-30" value="Sail Servo" style="rounded=0;whiteSpace=wrap;html=1;" parent="1" vertex="1">
          <mxGeometry x="515" y="760" width="120" height="60" as="geometry" />
        </mxCell>
        <mxCell id="Uc1Cv-IKloBRggZakuaF-31" value="Rudder Servo" style="rounded=0;whiteSpace=wrap;html=1;" parent="1" vertex="1">
          <mxGeometry x="515" y="920" width="120" height="60" as="geometry" />
        </mxCell>
        <mxCell id="Uc1Cv-IKloBRggZakuaF-32" value="Jib Servo" style="rounded=0;whiteSpace=wrap;html=1;" parent="1" vertex="1">
          <mxGeometry x="515" y="840" width="120" height="60" as="geometry" />
        </mxCell>
        <mxCell id="Uc1Cv-IKloBRggZakuaF-37" style="edgeStyle=orthogonalEdgeStyle;rounded=0;orthogonalLoop=1;jettySize=auto;html=1;exitX=0;exitY=0.5;exitDx=0;exitDy=0;entryX=0.419;entryY=1.003;entryDx=0;entryDy=0;entryPerimeter=0;strokeColor=#b85450;fillColor=#f8cecc;" parent="1" source="Uc1Cv-IKloBRggZakuaF-42" target="Uc1Cv-IKloBRggZakuaF-27" edge="1">
          <mxGeometry relative="1" as="geometry">
            <mxPoint x="122.75100000000023" y="635.3349999999998" as="sourcePoint" />
            <Array as="points">
              <mxPoint x="142.04000000000002" y="630" />
              <mxPoint x="82.03999999999999" y="630" />
              <mxPoint x="82.03999999999999" y="610" />
            </Array>
          </mxGeometry>
        </mxCell>
        <mxCell id="Uc1Cv-IKloBRggZakuaF-38" style="edgeStyle=orthogonalEdgeStyle;rounded=0;orthogonalLoop=1;jettySize=auto;html=1;exitX=0;exitY=0.5;exitDx=0;exitDy=0;strokeColor=#b85450;fillColor=#f8cecc;" parent="1" source="Uc1Cv-IKloBRggZakuaF-42" edge="1">
          <mxGeometry relative="1" as="geometry">
            <mxPoint x="123.27000000000001" y="635" as="sourcePoint" />
            <mxPoint x="142.04000000000002" y="610" as="targetPoint" />
            <Array as="points">
              <mxPoint x="142.04000000000002" y="610" />
            </Array>
          </mxGeometry>
        </mxCell>
        <mxCell id="Uc1Cv-IKloBRggZakuaF-39" style="edgeStyle=orthogonalEdgeStyle;rounded=0;orthogonalLoop=1;jettySize=auto;html=1;entryX=0.345;entryY=0.998;entryDx=0;entryDy=0;exitX=0;exitY=0.5;exitDx=0;exitDy=0;entryPerimeter=0;strokeColor=#b85450;fillColor=#f8cecc;" parent="1" source="Uc1Cv-IKloBRggZakuaF-42" target="Uc1Cv-IKloBRggZakuaF-34" edge="1">
          <mxGeometry relative="1" as="geometry">
            <mxPoint x="123.27000000000001" y="630" as="sourcePoint" />
            <Array as="points">
              <mxPoint x="142.04000000000002" y="630" />
              <mxPoint x="200.04" y="630" />
              <mxPoint x="200.04" y="610" />
            </Array>
          </mxGeometry>
        </mxCell>
        <mxCell id="Uc1Cv-IKloBRggZakuaF-47" style="edgeStyle=orthogonalEdgeStyle;rounded=0;orthogonalLoop=1;jettySize=auto;html=1;entryX=0;entryY=0.75;entryDx=0;entryDy=0;strokeColor=#b85450;fillColor=#f8cecc;" parent="1" target="Uc1Cv-IKloBRggZakuaF-30" edge="1">
          <mxGeometry relative="1" as="geometry">
            <Array as="points">
              <mxPoint x="515" y="800" />
            </Array>
            <mxPoint x="425" y="800" as="sourcePoint" />
          </mxGeometry>
        </mxCell>
        <mxCell id="Uc1Cv-IKloBRggZakuaF-48" value="5-7.4V/GND" style="edgeLabel;html=1;align=center;verticalAlign=middle;resizable=0;points=[];" parent="Uc1Cv-IKloBRggZakuaF-47" vertex="1" connectable="0">
          <mxGeometry x="0.7505" relative="1" as="geometry">
            <mxPoint x="-36" as="offset" />
          </mxGeometry>
        </mxCell>
        <mxCell id="Uc1Cv-IKloBRggZakuaF-50" style="edgeStyle=orthogonalEdgeStyle;rounded=0;orthogonalLoop=1;jettySize=auto;html=1;entryX=0;entryY=0.75;entryDx=0;entryDy=0;fillColor=#f8cecc;strokeColor=#b85450;" parent="1" target="Uc1Cv-IKloBRggZakuaF-32" edge="1">
          <mxGeometry relative="1" as="geometry">
            <mxPoint x="425" y="800" as="sourcePoint" />
            <Array as="points">
              <mxPoint x="425" y="885" />
            </Array>
          </mxGeometry>
        </mxCell>
        <mxCell id="Uc1Cv-IKloBRggZakuaF-51" style="edgeStyle=orthogonalEdgeStyle;rounded=0;orthogonalLoop=1;jettySize=auto;html=1;entryX=0;entryY=0.75;entryDx=0;entryDy=0;fillColor=#f8cecc;strokeColor=#b85450;" parent="1" target="Uc1Cv-IKloBRggZakuaF-31" edge="1">
          <mxGeometry relative="1" as="geometry">
            <mxPoint x="425" y="800" as="sourcePoint" />
            <Array as="points">
              <mxPoint x="425" y="965" />
            </Array>
          </mxGeometry>
        </mxCell>
        <mxCell id="Uc1Cv-IKloBRggZakuaF-34" value="7.4V Buck Converter" style="rounded=0;whiteSpace=wrap;html=1;" parent="1" vertex="1">
          <mxGeometry x="182.04" y="560" width="52.55" height="50" as="geometry" />
        </mxCell>
        <mxCell id="Uc1Cv-IKloBRggZakuaF-35" style="edgeStyle=orthogonalEdgeStyle;rounded=0;orthogonalLoop=1;jettySize=auto;html=1;exitX=0.5;exitY=0;exitDx=0;exitDy=0;entryX=1;entryY=1;entryDx=0;entryDy=0;strokeColor=#b85450;fillColor=#f8cecc;" parent="1" source="Uc1Cv-IKloBRggZakuaF-21" target="Uc1Cv-IKloBRggZakuaF-42" edge="1">
          <mxGeometry relative="1" as="geometry">
            <mxPoint x="109.48100000000022" y="835.3349999999998" as="targetPoint" />
            <Array as="points">
              <mxPoint x="103" y="840" />
              <mxPoint x="125" y="840" />
              <mxPoint x="125" y="740" />
              <mxPoint x="127" y="740" />
            </Array>
          </mxGeometry>
        </mxCell>
        <mxCell id="Uc1Cv-IKloBRggZakuaF-40" value="AC-&amp;gt;DC Power (7.4V+)" style="rounded=0;whiteSpace=wrap;html=1;" parent="1" vertex="1">
          <mxGeometry x="190" y="860" width="94.59" height="90" as="geometry" />
        </mxCell>
        <mxCell id="Uc1Cv-IKloBRggZakuaF-42" value="&lt;font&gt;Power Switch&lt;/font&gt;" style="pointerEvents=1;verticalLabelPosition=bottom;shadow=0;dashed=0;align=center;html=1;verticalAlign=top;shape=mxgraph.electrical.electro-mechanical.twoWayContact2;elSwitchState=2;rotation=90;" parent="1" vertex="1">
          <mxGeometry x="104.54000000000003" y="670" width="75" height="30" as="geometry" />
        </mxCell>
        <mxCell id="Uc1Cv-IKloBRggZakuaF-45" value="" style="shape=flexArrow;endArrow=classic;startArrow=classic;html=1;rounded=0;entryX=0.5;entryY=1;entryDx=0;entryDy=0;exitX=0.5;exitY=0;exitDx=0;exitDy=0;" parent="1" source="Uc1Cv-IKloBRggZakuaF-14" target="Uc1Cv-IKloBRggZakuaF-77" edge="1">
          <mxGeometry width="100" height="100" relative="1" as="geometry">
            <mxPoint x="407" y="490" as="sourcePoint" />
            <mxPoint x="407" y="320" as="targetPoint" />
          </mxGeometry>
        </mxCell>
        <mxCell id="Uc1Cv-IKloBRggZakuaF-46" value="Mast Bus&lt;br&gt;I&lt;sup&gt;2&lt;/sup&gt;C, 5V,&lt;br&gt;GPIO, HDMI etc." style="edgeLabel;html=1;align=center;verticalAlign=middle;resizable=0;points=[];" parent="Uc1Cv-IKloBRggZakuaF-45" vertex="1" connectable="0">
          <mxGeometry x="0.0498" relative="1" as="geometry">
            <mxPoint as="offset" />
          </mxGeometry>
        </mxCell>
        <mxCell id="Uc1Cv-IKloBRggZakuaF-69" value="" style="endArrow=classic;startArrow=classic;html=1;rounded=0;entryX=0;entryY=0.25;entryDx=0;entryDy=0;" parent="1" target="Uc1Cv-IKloBRggZakuaF-16" edge="1">
          <mxGeometry width="50" height="50" relative="1" as="geometry">
            <mxPoint x="475" y="590" as="sourcePoint" />
            <mxPoint x="525" y="540" as="targetPoint" />
            <Array as="points">
              <mxPoint x="500" y="590" />
              <mxPoint x="540" y="590" />
              <mxPoint x="540" y="623" />
            </Array>
          </mxGeometry>
        </mxCell>
        <mxCell id="Uc1Cv-IKloBRggZakuaF-70" value="USB" style="edgeLabel;html=1;align=center;verticalAlign=middle;resizable=0;points=[];" parent="Uc1Cv-IKloBRggZakuaF-69" vertex="1" connectable="0">
          <mxGeometry x="-0.3767" relative="1" as="geometry">
            <mxPoint as="offset" />
          </mxGeometry>
        </mxCell>
        <mxCell id="Al4e4faQVb-lgTv6NyQn-9" style="edgeStyle=orthogonalEdgeStyle;rounded=0;orthogonalLoop=1;jettySize=auto;html=1;exitX=1;exitY=0.75;exitDx=0;exitDy=0;entryX=0;entryY=0.25;entryDx=0;entryDy=0;" parent="1" source="Uc1Cv-IKloBRggZakuaF-73" target="Uc1Cv-IKloBRggZakuaF-77" edge="1">
          <mxGeometry relative="1" as="geometry" />
        </mxCell>
        <mxCell id="Al4e4faQVb-lgTv6NyQn-10" value="CSI -&amp;gt; HDMI" style="edgeLabel;html=1;align=center;verticalAlign=middle;resizable=0;points=[];" parent="Al4e4faQVb-lgTv6NyQn-9" vertex="1" connectable="0">
          <mxGeometry x="-0.4862" relative="1" as="geometry">
            <mxPoint x="18" y="10" as="offset" />
          </mxGeometry>
        </mxCell>
        <UserObject label="Camera" link="https://www.adafruit.com/product/5657" id="Uc1Cv-IKloBRggZakuaF-73">
          <mxCell style="rounded=0;whiteSpace=wrap;html=1;" parent="1" vertex="1">
            <mxGeometry x="154.59" y="170" width="60" height="40" as="geometry" />
          </mxCell>
        </UserObject>
        <UserObject label="Camera Servos" link="https://www.uctronics.com/64mp-camera-pan-tilt-kit.html" id="Uc1Cv-IKloBRggZakuaF-75">
          <mxCell style="rounded=0;whiteSpace=wrap;html=1;" parent="1" vertex="1">
            <mxGeometry x="154.59" y="110" width="60" height="40" as="geometry" />
          </mxCell>
        </UserObject>
        <UserObject label="Water Level Sensor" link="https://www.adafruit.com/product/4026?gQT=1" id="Uc1Cv-IKloBRggZakuaF-76">
          <mxCell style="rounded=0;whiteSpace=wrap;html=1;" parent="1" vertex="1">
            <mxGeometry x="600" y="320" width="60" height="50" as="geometry" />
          </mxCell>
        </UserObject>
        <mxCell id="Al4e4faQVb-lgTv6NyQn-53" style="edgeStyle=orthogonalEdgeStyle;rounded=0;orthogonalLoop=1;jettySize=auto;html=1;exitX=0.25;exitY=0;exitDx=0;exitDy=0;entryX=1;entryY=0.75;entryDx=0;entryDy=0;" parent="1" source="Uc1Cv-IKloBRggZakuaF-77" target="Uc1Cv-IKloBRggZakuaF-75" edge="1">
          <mxGeometry relative="1" as="geometry" />
        </mxCell>
        <mxCell id="Al4e4faQVb-lgTv6NyQn-54" value="I&lt;sup&gt;2&lt;/sup&gt;C" style="edgeLabel;html=1;align=center;verticalAlign=middle;resizable=0;points=[];" parent="Al4e4faQVb-lgTv6NyQn-53" vertex="1" connectable="0">
          <mxGeometry x="0.5979" y="-1" relative="1" as="geometry">
            <mxPoint as="offset" />
          </mxGeometry>
        </mxCell>
        <mxCell id="Uc1Cv-IKloBRggZakuaF-77" value="Mast Fan Out" style="rounded=0;whiteSpace=wrap;html=1;" parent="1" vertex="1">
          <mxGeometry x="347.5" y="170" width="120" height="30" as="geometry" />
        </mxCell>
        <mxCell id="Uc1Cv-IKloBRggZakuaF-79" value="" style="endArrow=classic;startArrow=classic;html=1;rounded=0;entryX=0.75;entryY=1;entryDx=0;entryDy=0;exitX=0.75;exitY=0;exitDx=0;exitDy=0;" parent="1" source="Uc1Cv-IKloBRggZakuaF-10" target="Uc1Cv-IKloBRggZakuaF-14" edge="1">
          <mxGeometry width="50" height="50" relative="1" as="geometry">
            <mxPoint x="270" y="570" as="sourcePoint" />
            <mxPoint x="320" y="520" as="targetPoint" />
          </mxGeometry>
        </mxCell>
        <mxCell id="Uc1Cv-IKloBRggZakuaF-81" value="I&lt;sup&gt;2&lt;/sup&gt;C" style="edgeLabel;html=1;align=center;verticalAlign=middle;resizable=0;points=[];" parent="Uc1Cv-IKloBRggZakuaF-79" vertex="1" connectable="0">
          <mxGeometry x="0.1051" y="-1" relative="1" as="geometry">
            <mxPoint as="offset" />
          </mxGeometry>
        </mxCell>
        <mxCell id="Al4e4faQVb-lgTv6NyQn-11" style="edgeStyle=orthogonalEdgeStyle;rounded=0;orthogonalLoop=1;jettySize=auto;html=1;exitX=0.94;exitY=1.017;exitDx=0;exitDy=0;entryX=0.105;entryY=0.02;entryDx=0;entryDy=0;entryPerimeter=0;exitPerimeter=0;" parent="1" source="Uc1Cv-IKloBRggZakuaF-14" target="Uc1Cv-IKloBRggZakuaF-16" edge="1">
          <mxGeometry relative="1" as="geometry">
            <Array as="points">
              <mxPoint x="460" y="422" />
              <mxPoint x="460" y="422" />
              <mxPoint x="460" y="490" />
              <mxPoint x="581" y="490" />
            </Array>
          </mxGeometry>
        </mxCell>
        <mxCell id="Al4e4faQVb-lgTv6NyQn-12" value="Micro HDMI&amp;nbsp;&lt;span style=&quot;background-color: light-dark(#ffffff, var(--ge-dark-color, #121212)); color: light-dark(rgb(0, 0, 0), rgb(255, 255, 255));&quot;&gt;-&amp;gt;&lt;/span&gt;&lt;div&gt;&lt;span style=&quot;color: light-dark(rgb(0, 0, 0), rgb(255, 255, 255)); background-color: light-dark(#ffffff, var(--ge-dark-color, #121212));&quot;&gt;HDMI -&amp;gt; CSI&lt;/span&gt;&lt;/div&gt;" style="edgeLabel;html=1;align=center;verticalAlign=middle;resizable=0;points=[];" parent="Al4e4faQVb-lgTv6NyQn-11" vertex="1" connectable="0">
          <mxGeometry x="-0.5328" y="-2" relative="1" as="geometry">
            <mxPoint x="72" y="9" as="offset" />
          </mxGeometry>
        </mxCell>
        <mxCell id="Al4e4faQVb-lgTv6NyQn-21" style="edgeStyle=orthogonalEdgeStyle;rounded=0;orthogonalLoop=1;jettySize=auto;html=1;entryX=0;entryY=0.75;entryDx=0;entryDy=0;fillColor=#f8cecc;strokeColor=#b85450;" parent="1" edge="1">
          <mxGeometry relative="1" as="geometry">
            <mxPoint x="297.5" y="420" as="sourcePoint" />
            <mxPoint x="347.5" y="414" as="targetPoint" />
            <Array as="points">
              <mxPoint x="307.5" y="420" />
              <mxPoint x="307.5" y="414" />
            </Array>
          </mxGeometry>
        </mxCell>
        <mxCell id="Al4e4faQVb-lgTv6NyQn-22" value="5V" style="edgeLabel;html=1;align=center;verticalAlign=middle;resizable=0;points=[];" parent="Al4e4faQVb-lgTv6NyQn-21" vertex="1" connectable="0">
          <mxGeometry x="0.7529" y="-1" relative="1" as="geometry">
            <mxPoint x="-15" as="offset" />
          </mxGeometry>
        </mxCell>
        <mxCell id="Al4e4faQVb-lgTv6NyQn-23" style="edgeStyle=orthogonalEdgeStyle;rounded=0;orthogonalLoop=1;jettySize=auto;html=1;fillColor=#f8cecc;strokeColor=#b85450;exitX=0.5;exitY=0;exitDx=0;exitDy=0;" parent="1" source="Uc1Cv-IKloBRggZakuaF-27" edge="1">
          <mxGeometry relative="1" as="geometry">
            <mxPoint x="62.04" y="548" as="sourcePoint" />
            <mxPoint x="92.04" y="520" as="targetPoint" />
            <Array as="points">
              <mxPoint x="87.04" y="550" />
              <mxPoint x="92.04" y="550" />
            </Array>
          </mxGeometry>
        </mxCell>
        <mxCell id="Al4e4faQVb-lgTv6NyQn-24" value="3.3V" style="edgeLabel;html=1;align=center;verticalAlign=middle;resizable=0;points=[];" parent="Al4e4faQVb-lgTv6NyQn-23" vertex="1" connectable="0">
          <mxGeometry x="0.7529" y="-1" relative="1" as="geometry">
            <mxPoint x="-1" y="14" as="offset" />
          </mxGeometry>
        </mxCell>
        <mxCell id="Al4e4faQVb-lgTv6NyQn-25" style="edgeStyle=orthogonalEdgeStyle;rounded=0;orthogonalLoop=1;jettySize=auto;html=1;fillColor=#f8cecc;strokeColor=#b85450;exitX=0.5;exitY=0;exitDx=0;exitDy=0;" parent="1" edge="1">
          <mxGeometry relative="1" as="geometry">
            <mxPoint x="145.82" y="560" as="sourcePoint" />
            <mxPoint x="150.82" y="520" as="targetPoint" />
            <Array as="points">
              <mxPoint x="145.82" y="550" />
              <mxPoint x="150.82" y="550" />
            </Array>
          </mxGeometry>
        </mxCell>
        <mxCell id="Al4e4faQVb-lgTv6NyQn-26" value="5V" style="edgeLabel;html=1;align=center;verticalAlign=middle;resizable=0;points=[];" parent="Al4e4faQVb-lgTv6NyQn-25" vertex="1" connectable="0">
          <mxGeometry x="0.7529" y="-1" relative="1" as="geometry">
            <mxPoint x="-1" y="14" as="offset" />
          </mxGeometry>
        </mxCell>
        <mxCell id="Al4e4faQVb-lgTv6NyQn-27" style="edgeStyle=orthogonalEdgeStyle;rounded=0;orthogonalLoop=1;jettySize=auto;html=1;fillColor=#f8cecc;strokeColor=#b85450;exitX=0.5;exitY=0;exitDx=0;exitDy=0;" parent="1" edge="1">
          <mxGeometry relative="1" as="geometry">
            <mxPoint x="205.82" y="560" as="sourcePoint" />
            <mxPoint x="210.82" y="520" as="targetPoint" />
            <Array as="points">
              <mxPoint x="205.82" y="550" />
              <mxPoint x="210.82" y="550" />
            </Array>
          </mxGeometry>
        </mxCell>
        <mxCell id="Al4e4faQVb-lgTv6NyQn-28" value="5-7.4V" style="edgeLabel;html=1;align=center;verticalAlign=middle;resizable=0;points=[];" parent="Al4e4faQVb-lgTv6NyQn-27" vertex="1" connectable="0">
          <mxGeometry x="0.7529" y="-1" relative="1" as="geometry">
            <mxPoint x="-1" y="14" as="offset" />
          </mxGeometry>
        </mxCell>
        <mxCell id="Al4e4faQVb-lgTv6NyQn-31" style="edgeStyle=orthogonalEdgeStyle;rounded=0;orthogonalLoop=1;jettySize=auto;html=1;entryX=0.25;entryY=1;entryDx=0;entryDy=0;fillColor=#f8cecc;strokeColor=#b85450;" parent="1" target="Uc1Cv-IKloBRggZakuaF-76" edge="1">
          <mxGeometry relative="1" as="geometry">
            <mxPoint x="610" y="420" as="sourcePoint" />
            <mxPoint x="616" y="490" as="targetPoint" />
            <Array as="points">
              <mxPoint x="611" y="400" />
              <mxPoint x="615" y="400" />
            </Array>
          </mxGeometry>
        </mxCell>
        <mxCell id="Al4e4faQVb-lgTv6NyQn-32" value="3-5V/GND" style="edgeLabel;html=1;align=center;verticalAlign=middle;resizable=0;points=[];" parent="Al4e4faQVb-lgTv6NyQn-31" vertex="1" connectable="0">
          <mxGeometry x="0.8836" y="-1" relative="1" as="geometry">
            <mxPoint x="-6" y="17" as="offset" />
          </mxGeometry>
        </mxCell>
        <mxCell id="Al4e4faQVb-lgTv6NyQn-44" value="" style="endArrow=classic;startArrow=classic;html=1;rounded=0;exitX=0.75;exitY=0;exitDx=0;exitDy=0;" parent="1" edge="1">
          <mxGeometry width="50" height="50" relative="1" as="geometry">
            <mxPoint x="440" y="660" as="sourcePoint" />
            <mxPoint x="440" y="620" as="targetPoint" />
          </mxGeometry>
        </mxCell>
        <mxCell id="Al4e4faQVb-lgTv6NyQn-45" value="UART" style="edgeLabel;html=1;align=center;verticalAlign=middle;resizable=0;points=[];" parent="Al4e4faQVb-lgTv6NyQn-44" vertex="1" connectable="0">
          <mxGeometry x="0.1051" y="-1" relative="1" as="geometry">
            <mxPoint y="5" as="offset" />
          </mxGeometry>
        </mxCell>
        <mxCell id="Al4e4faQVb-lgTv6NyQn-49" value="&lt;b&gt;&lt;font style=&quot;font-size: 14px;&quot;&gt;PCB Power&lt;/font&gt;&lt;/b&gt;" style="text;html=1;align=center;verticalAlign=middle;resizable=1;points=[];autosize=1;strokeColor=none;fillColor=none;movable=1;rotatable=1;deletable=1;editable=1;locked=0;connectable=1;" parent="1" vertex="1">
          <mxGeometry x="160" y="720" width="98.31" height="20" as="geometry" />
        </mxCell>
        <mxCell id="Al4e4faQVb-lgTv6NyQn-51" value="&lt;b&gt;&lt;font style=&quot;font-size: 14px;&quot;&gt;Crows Nest&lt;/font&gt;&lt;/b&gt;" style="text;html=1;align=center;verticalAlign=middle;resizable=0;points=[];autosize=1;strokeColor=none;fillColor=none;movable=0;rotatable=0;deletable=0;editable=0;locked=1;connectable=0;" parent="1" vertex="1">
          <mxGeometry x="570" y="190" width="100" height="30" as="geometry" />
        </mxCell>
        <mxCell id="Al4e4faQVb-lgTv6NyQn-55" style="edgeStyle=orthogonalEdgeStyle;rounded=0;orthogonalLoop=1;jettySize=auto;html=1;entryX=1;entryY=0.25;entryDx=0;entryDy=0;fillColor=#f8cecc;strokeColor=#b85450;exitX=0.386;exitY=-0.039;exitDx=0;exitDy=0;exitPerimeter=0;" parent="1" source="Uc1Cv-IKloBRggZakuaF-77" target="Uc1Cv-IKloBRggZakuaF-75" edge="1">
          <mxGeometry relative="1" as="geometry">
            <mxPoint x="410" y="90" as="sourcePoint" />
            <mxPoint x="416" y="140" as="targetPoint" />
            <Array as="points">
              <mxPoint x="394" y="120" />
            </Array>
          </mxGeometry>
        </mxCell>
        <mxCell id="Al4e4faQVb-lgTv6NyQn-56" value="5V/GND" style="edgeLabel;html=1;align=center;verticalAlign=middle;resizable=0;points=[];" parent="Al4e4faQVb-lgTv6NyQn-55" vertex="1" connectable="0">
          <mxGeometry x="0.8836" y="-1" relative="1" as="geometry">
            <mxPoint x="31" y="1" as="offset" />
          </mxGeometry>
        </mxCell>
        <mxCell id="Al4e4faQVb-lgTv6NyQn-57" style="edgeStyle=orthogonalEdgeStyle;rounded=0;orthogonalLoop=1;jettySize=auto;html=1;entryX=0.25;entryY=1;entryDx=0;entryDy=0;fillColor=#f8cecc;strokeColor=#b85450;" parent="1" target="Uc1Cv-IKloBRggZakuaF-15" edge="1">
          <mxGeometry relative="1" as="geometry">
            <mxPoint x="394" y="169" as="sourcePoint" />
            <mxPoint x="260" y="121" as="targetPoint" />
            <Array as="points">
              <mxPoint x="394" y="120" />
              <mxPoint x="563" y="120" />
            </Array>
          </mxGeometry>
        </mxCell>
        <mxCell id="Al4e4faQVb-lgTv6NyQn-58" value="5V/GND" style="edgeLabel;html=1;align=center;verticalAlign=middle;resizable=0;points=[];" parent="Al4e4faQVb-lgTv6NyQn-57" vertex="1" connectable="0">
          <mxGeometry x="0.8836" y="-1" relative="1" as="geometry">
            <mxPoint x="-2" y="6" as="offset" />
          </mxGeometry>
        </mxCell>
        <mxCell id="Al4e4faQVb-lgTv6NyQn-59" style="edgeStyle=orthogonalEdgeStyle;rounded=0;orthogonalLoop=1;jettySize=auto;html=1;entryX=0.25;entryY=1;entryDx=0;entryDy=0;fillColor=#f8cecc;strokeColor=#b85450;" parent="1" target="Uc1Cv-IKloBRggZakuaF-13" edge="1">
          <mxGeometry relative="1" as="geometry">
            <mxPoint x="394" y="170" as="sourcePoint" />
            <mxPoint x="412.5" y="80" as="targetPoint" />
            <Array as="points">
              <mxPoint x="394" y="120" />
              <mxPoint x="378" y="120" />
              <mxPoint x="378" y="80" />
            </Array>
          </mxGeometry>
        </mxCell>
        <mxCell id="Al4e4faQVb-lgTv6NyQn-60" value="5V/GND" style="edgeLabel;html=1;align=center;verticalAlign=middle;resizable=0;points=[];" parent="Al4e4faQVb-lgTv6NyQn-59" vertex="1" connectable="0">
          <mxGeometry x="0.8836" y="-1" relative="1" as="geometry">
            <mxPoint x="-1" y="16" as="offset" />
          </mxGeometry>
        </mxCell>
        <mxCell id="Al4e4faQVb-lgTv6NyQn-64" style="edgeStyle=orthogonalEdgeStyle;rounded=0;orthogonalLoop=1;jettySize=auto;html=1;entryX=0.25;entryY=1;entryDx=0;entryDy=0;fillColor=#f8cecc;strokeColor=#b85450;" parent="1" edge="1">
          <mxGeometry relative="1" as="geometry">
            <mxPoint x="690" y="480" as="sourcePoint" />
            <mxPoint x="694" y="440" as="targetPoint" />
            <Array as="points">
              <mxPoint x="690" y="460" />
              <mxPoint x="694" y="460" />
            </Array>
          </mxGeometry>
        </mxCell>
        <mxCell id="Al4e4faQVb-lgTv6NyQn-65" value="3.3V/GND" style="edgeLabel;html=1;align=center;verticalAlign=middle;resizable=0;points=[];" parent="Al4e4faQVb-lgTv6NyQn-64" vertex="1" connectable="0">
          <mxGeometry x="0.8836" y="-1" relative="1" as="geometry">
            <mxPoint y="27" as="offset" />
          </mxGeometry>
        </mxCell>
        <mxCell id="Al4e4faQVb-lgTv6NyQn-66" style="edgeStyle=orthogonalEdgeStyle;rounded=0;orthogonalLoop=1;jettySize=auto;html=1;entryX=0.25;entryY=1;entryDx=0;entryDy=0;fillColor=#f8cecc;strokeColor=#b85450;" parent="1" edge="1">
          <mxGeometry relative="1" as="geometry">
            <mxPoint x="756" y="480" as="sourcePoint" />
            <mxPoint x="760" y="440" as="targetPoint" />
            <Array as="points">
              <mxPoint x="756" y="460" />
              <mxPoint x="760" y="460" />
            </Array>
          </mxGeometry>
        </mxCell>
        <mxCell id="Al4e4faQVb-lgTv6NyQn-67" value="3.3V/GND" style="edgeLabel;html=1;align=center;verticalAlign=middle;resizable=0;points=[];" parent="Al4e4faQVb-lgTv6NyQn-66" vertex="1" connectable="0">
          <mxGeometry x="0.8836" y="-1" relative="1" as="geometry">
            <mxPoint y="27" as="offset" />
          </mxGeometry>
        </mxCell>
        <mxCell id="Al4e4faQVb-lgTv6NyQn-68" value="" style="endArrow=classic;startArrow=classic;html=1;rounded=0;" parent="1" edge="1">
          <mxGeometry width="50" height="50" relative="1" as="geometry">
            <mxPoint x="720" y="490" as="sourcePoint" />
            <mxPoint x="720" y="440" as="targetPoint" />
          </mxGeometry>
        </mxCell>
        <mxCell id="Al4e4faQVb-lgTv6NyQn-69" value="UART" style="edgeLabel;html=1;align=center;verticalAlign=middle;resizable=0;points=[];" parent="Al4e4faQVb-lgTv6NyQn-68" vertex="1" connectable="0">
          <mxGeometry x="0.1051" y="-1" relative="1" as="geometry">
            <mxPoint x="-1" y="-6" as="offset" />
          </mxGeometry>
        </mxCell>
        <mxCell id="Al4e4faQVb-lgTv6NyQn-70" value="" style="endArrow=classic;startArrow=classic;html=1;rounded=0;exitX=0.75;exitY=0;exitDx=0;exitDy=0;" parent="1" edge="1">
          <mxGeometry width="50" height="50" relative="1" as="geometry">
            <mxPoint x="790" y="480" as="sourcePoint" />
            <mxPoint x="790" y="440" as="targetPoint" />
          </mxGeometry>
        </mxCell>
        <mxCell id="Al4e4faQVb-lgTv6NyQn-71" value="I&lt;sup&gt;2&lt;/sup&gt;C" style="edgeLabel;html=1;align=center;verticalAlign=middle;resizable=0;points=[];" parent="Al4e4faQVb-lgTv6NyQn-70" vertex="1" connectable="0">
          <mxGeometry x="0.1051" y="-1" relative="1" as="geometry">
            <mxPoint as="offset" />
          </mxGeometry>
        </mxCell>
        <mxCell id="crPP7mbpxgBwKGuKat4Y-5" value="" style="endArrow=classic;startArrow=classic;html=1;rounded=0;entryX=0.75;entryY=1;entryDx=0;entryDy=0;exitX=0.75;exitY=0;exitDx=0;exitDy=0;" parent="1" edge="1">
          <mxGeometry width="50" height="50" relative="1" as="geometry">
            <mxPoint x="406.5" y="560" as="sourcePoint" />
            <mxPoint x="408.5" y="420" as="targetPoint" />
          </mxGeometry>
        </mxCell>
        <mxCell id="crPP7mbpxgBwKGuKat4Y-7" value="x3 GPIO" style="edgeLabel;html=1;align=center;verticalAlign=middle;resizable=0;points=[];" parent="crPP7mbpxgBwKGuKat4Y-5" vertex="1" connectable="0">
          <mxGeometry x="0.1047" relative="1" as="geometry">
            <mxPoint y="18" as="offset" />
          </mxGeometry>
        </mxCell>
        <mxCell id="crPP7mbpxgBwKGuKat4Y-8" value="" style="endArrow=classic;startArrow=classic;html=1;rounded=0;entryX=0.75;entryY=1;entryDx=0;entryDy=0;" parent="1" target="Uc1Cv-IKloBRggZakuaF-76" edge="1">
          <mxGeometry width="50" height="50" relative="1" as="geometry">
            <mxPoint x="645" y="420" as="sourcePoint" />
            <mxPoint x="650" y="440" as="targetPoint" />
          </mxGeometry>
        </mxCell>
        <mxCell id="crPP7mbpxgBwKGuKat4Y-9" value="I&lt;sup&gt;2&lt;/sup&gt;C" style="edgeLabel;html=1;align=center;verticalAlign=middle;resizable=0;points=[];" parent="crPP7mbpxgBwKGuKat4Y-8" vertex="1" connectable="0">
          <mxGeometry x="0.1051" y="-1" relative="1" as="geometry">
            <mxPoint as="offset" />
          </mxGeometry>
        </mxCell>
        <mxCell id="u09L4TnPzqUx7UX7cY9H-1" value="Bilge Pump" style="rounded=0;whiteSpace=wrap;html=1;" parent="1" vertex="1">
          <mxGeometry x="510" y="290" width="70" height="60" as="geometry" />
        </mxCell>
        <UserObject label="MOSFET" link="https://www.ti.com/product/L293D" id="u09L4TnPzqUx7UX7cY9H-4">
          <mxCell style="rounded=0;whiteSpace=wrap;html=1;" parent="1" vertex="1">
            <mxGeometry x="510" y="390" width="60" height="30" as="geometry" />
          </mxCell>
        </UserObject>
        <mxCell id="u09L4TnPzqUx7UX7cY9H-7" value="" style="endArrow=classic;startArrow=classic;html=1;rounded=0;entryX=0.25;entryY=1;entryDx=0;entryDy=0;exitX=0.75;exitY=0;exitDx=0;exitDy=0;" parent="1" target="u09L4TnPzqUx7UX7cY9H-4" edge="1">
          <mxGeometry width="50" height="50" relative="1" as="geometry">
            <mxPoint x="450" y="560" as="sourcePoint" />
            <mxPoint x="452" y="420" as="targetPoint" />
            <Array as="points">
              <mxPoint x="450" y="530" />
              <mxPoint x="490" y="530" />
              <mxPoint x="490" y="440" />
              <mxPoint x="525" y="440" />
            </Array>
          </mxGeometry>
        </mxCell>
        <mxCell id="u09L4TnPzqUx7UX7cY9H-8" value="GPIO" style="edgeLabel;html=1;align=center;verticalAlign=middle;resizable=0;points=[];" parent="u09L4TnPzqUx7UX7cY9H-7" vertex="1" connectable="0">
          <mxGeometry x="0.1051" y="-1" relative="1" as="geometry">
            <mxPoint y="-21" as="offset" />
          </mxGeometry>
        </mxCell>
        <mxCell id="u09L4TnPzqUx7UX7cY9H-9" style="edgeStyle=orthogonalEdgeStyle;rounded=0;orthogonalLoop=1;jettySize=auto;html=1;entryX=0.383;entryY=0.998;entryDx=0;entryDy=0;fillColor=#f8cecc;strokeColor=#b85450;entryPerimeter=0;" parent="1" edge="1">
          <mxGeometry relative="1" as="geometry">
            <mxPoint x="541.48" y="460" as="sourcePoint" />
            <mxPoint x="548.48" y="420" as="targetPoint" />
            <Array as="points">
              <mxPoint x="541.48" y="440" />
            </Array>
          </mxGeometry>
        </mxCell>
        <mxCell id="u09L4TnPzqUx7UX7cY9H-10" value="7.4V/GND" style="edgeLabel;html=1;align=center;verticalAlign=middle;resizable=0;points=[];" parent="u09L4TnPzqUx7UX7cY9H-9" vertex="1" connectable="0">
          <mxGeometry x="0.8836" y="-1" relative="1" as="geometry">
            <mxPoint x="-6" y="17" as="offset" />
          </mxGeometry>
        </mxCell>
        <mxCell id="u09L4TnPzqUx7UX7cY9H-14" style="edgeStyle=orthogonalEdgeStyle;rounded=0;orthogonalLoop=1;jettySize=auto;html=1;entryX=0.383;entryY=0.998;entryDx=0;entryDy=0;fillColor=#f8cecc;strokeColor=#b85450;entryPerimeter=0;" parent="1" edge="1">
          <mxGeometry relative="1" as="geometry">
            <mxPoint x="532.98" y="390" as="sourcePoint" />
            <mxPoint x="539.98" y="350" as="targetPoint" />
            <Array as="points">
              <mxPoint x="533.5" y="370" />
              <mxPoint x="539.5" y="370" />
            </Array>
          </mxGeometry>
        </mxCell>
        <mxCell id="u09L4TnPzqUx7UX7cY9H-15" value="7.4V/OFF, GND" style="edgeLabel;html=1;align=center;verticalAlign=middle;resizable=0;points=[];" parent="u09L4TnPzqUx7UX7cY9H-14" vertex="1" connectable="0">
          <mxGeometry x="0.8836" y="-1" relative="1" as="geometry">
            <mxPoint x="-6" y="17" as="offset" />
          </mxGeometry>
        </mxCell>
        <mxCell id="Al4e4faQVb-lgTv6NyQn-47" value="&lt;b&gt;&lt;font style=&quot;font-size: 14px;&quot;&gt;External Power&lt;/font&gt;&lt;/b&gt;" style="text;html=1;align=center;verticalAlign=middle;resizable=1;points=[];autosize=1;strokeColor=none;fillColor=none;movable=1;rotatable=1;deletable=1;editable=1;locked=0;connectable=1;" parent="1" vertex="1">
          <mxGeometry x="174.91" y="970" width="120" height="30" as="geometry" />
        </mxCell>
      </root>
    </mxGraphModel>
  </diagram>
</mxfile>
